<?xml version="1.0" encoding="utf-8"?>
<!-- Generator: Adobe Illustrator 24.3.0, SVG Export Plug-In . SVG Version: 6.00 Build 0)  -->
<svg version="1.1" id="Layer_1" xmlns="http://www.w3.org/2000/svg" xmlns:xlink="http://www.w3.org/1999/xlink" x="0px" y="0px"
	 viewBox="0 0 392.98 101.96" style="enable-background:new 0 0 392.98 101.96;" xml:space="preserve">
<style type="text/css">
	.st0{fill:#F6AD00;}
	.st1{fill:#0C3388;}
	.st2{fill:#2AA738;}
	.st3{fill:#D0121B;}
</style>
<g>
	<g>
		<path class="st0" d="M35.29,32.61c6.41,0,10.25,1.76,12.43,4.1c1.93,2.07,1.78,6.21,1.78,11.54v24.71h18.46V49
			c0-2.91-0.06-5.27-0.18-7.1c-0.12-1.83-0.3-3.51-0.54-5.05c-0.8-4.6-2.44-8.23-4.93-10.89c-4.25-4.52-11.53-6.78-21.86-6.78
			c-2.72,0-5.09,0.15-7.09,0.43c-2.01,0.3-3.75,0.71-5.22,1.25c-4.21,1.51-7.09,4.39-8.66,8.65c-0.28,0.58-0.46,1-0.54,1.25
			c-0.08,0.26-0.24,0.82-0.48,1.69v-12.3H0v52.81h18.47V49.87c0-5.11,1.22-8.96,3.68-11.54C24.29,36.2,28.41,32.61,35.29,32.61z"/>
	</g>
	<g>
		<path class="st0" d="M313.44,50.62l0.06-4.32l-0.29-6.45c0-1.29-0.07-2.34-0.2-3.2c-0.11-0.86-0.35-1.95-0.67-3.32
			c-1.58-6.87-6.15-11.11-13.71-12.72c-3.78-0.88-10.32-1.31-19.63-1.31c-6.31,0-11.55,0.35-15.73,1.05
			c-4.19,0.69-7.48,1.72-9.88,3.08c-3.58,2.1-5.92,5.66-7.01,10.67c-0.81,3.53-1.22,7.88-1.22,13.07c0,1.94,0.1,3.77,0.31,5.52
			c0.21,1.75,0.49,3.46,0.85,5.14c1.87,8.43,7.6,13.33,17.19,14.68c4.39,0.62,9.49,0.92,15.3,0.92c5.45,0,10.14-0.18,14.08-0.55
			c3.94-0.37,7.01-0.88,9.22-1.55c3.41-0.98,6.16-2.86,8.25-5.62c2.1-2.77,3.14-6.04,3.14-9.83v-0.98h-18.96
			c-0.37,1.9-1.1,3.37-2.2,4.39c-1.1,1.01-2.57,1.52-4.4,1.52c-1.76,0.08-3.39,0.15-4.9,0.18c-1.5,0.05-2.95,0.06-4.35,0.06
			c-4.11,0-7.34-0.31-9.66-0.92c-3.39-1.03-5.08-3.47-5.08-7.37v-2.15H313.44z M263.58,38.92c0-2.2,0.77-3.91,2.31-5.15
			c1.54-1.23,3.66-1.86,6.34-1.86c1.91-0.15,4.25-0.23,7.01-0.23l7.32,0.23c2.27,0,4.05,0.47,5.37,1.41
			c1.3,0.94,2.11,2.25,2.43,3.91l0.25,1.68H263.58z"/>
	</g>
	<g>
		<path class="st0" d="M372.72,59.45c-0.8,0.65-1.97,0.97-3.49,0.97c-2.35,0.33-5.23,0.49-8.66,0.49h-5.94l-4.64-0.49
			c-3.92-0.36-5.67-2.58-6.29-5.8h-18.92v4.57c0,3.68,1.3,6.65,3.89,8.9c2.59,2.25,6.1,3.74,10.55,4.43
			c4.44,0.7,11.07,1.05,21.44,1.05h10.79c3.5,0,6.58-0.32,9.26-0.96c2.67-0.64,4.85-1.5,6.54-2.58c3.79-2.44,5.68-7.32,5.68-14.65
			c0-7.54-2.96-12.23-8.86-14.1c-1.73-0.57-3.42-1.02-5.05-1.33c-1.62-0.31-3.33-0.47-5.11-0.47c-0.25,0-1.3-0.04-3.16-0.12
			c-1.86-0.08-3.42-0.12-4.7-0.12l-12.08-0.48l-5.89-0.11c-1.44,0-2.52-0.28-3.25-0.86c-0.72-0.57-1.09-1.42-1.09-2.52
			c0-1.73,1.14-2.72,3.4-2.97c2.27-0.24,4.37-0.36,6.31-0.36h5.94h5.07c2.92,0.29,4.95,1.25,6.05,2.88l0.88,1.51h19.17V33.1
			c0-2.56-0.6-4.72-1.79-6.46c-1.19-1.75-2.89-3.14-5.12-4.17c-1.4-0.7-3.21-1.48-5.16-1.98c-1.92-0.49-4.69-1.21-8.31-1.21
			c-1.41,0-3.06,0-6.12,0c-5.19,0-8.47-0.02-9.82-0.02c-2.95,0-5.95,0.09-8.97,0.27c-3.02,0.19-5.46,0.4-7.31,0.65
			c-8.8,1.23-13.21,6.68-13.21,16.31c0,6.31,2.44,10.5,7.31,12.56c1.36,0.62,3.36,1.13,5.98,1.52c2.62,0.39,5.75,0.59,9.38,0.59
			l11.84,0.48l6.94,0.36c2.48,0.24,4.17,0.52,5.08,0.79c1.77,0.6,2.67,1.94,2.67,3.96C373.93,57.91,373.52,58.8,372.72,59.45z"/>
	</g>
	<g>
		<path class="st0" d="M147.58,50.5l0.06-4.32l-0.29-6.45c0-1.29-0.07-2.34-0.2-3.2c-0.11-0.86-0.35-1.95-0.67-3.32
			c-1.58-6.87-6.15-11.11-13.71-12.72c-3.78-0.88-10.32-1.31-19.63-1.31c-6.3,0-11.55,0.35-15.73,1.05
			c-4.19,0.69-7.48,1.72-9.88,3.08c-3.58,2.1-5.91,5.66-7.01,10.67c-0.81,3.53-1.22,7.88-1.22,13.07c0,1.94,0.1,3.77,0.31,5.52
			c0.2,1.75,0.49,3.46,0.85,5.14c1.87,8.43,7.6,13.33,17.19,14.68c4.39,0.62,9.49,0.92,15.3,0.92c5.45,0,10.14-0.18,14.08-0.55
			c3.94-0.37,7.01-0.88,9.22-1.55c3.41-0.98,6.16-2.86,8.25-5.62c2.1-2.77,3.14-6.04,3.14-9.83v-0.98h-18.96
			c-0.37,1.9-1.11,3.37-2.21,4.39c-1.1,1.01-2.57,1.52-4.4,1.52c-1.76,0.08-3.39,0.15-4.9,0.18c-1.5,0.05-2.95,0.06-4.35,0.06
			c-4.11,0-7.34-0.31-9.66-0.92c-3.38-1.03-5.08-3.47-5.08-7.37V50.5H147.58z M97.72,38.79c0-2.2,0.77-3.91,2.31-5.15
			c1.55-1.23,3.66-1.86,6.34-1.86c1.92-0.15,4.25-0.23,7.02-0.23l7.32,0.23c2.27,0,4.05,0.47,5.37,1.41
			c1.3,0.94,2.11,2.25,2.43,3.91l0.25,1.68H97.72z"/>
	</g>
	<g>
		<path class="st1" d="M224.42,12.09c-1.29-1.3-3.02-2.01-4.86-2.01c-1.84,0-3.56,0.72-4.87,2.01c0,0-5.68,5.68-5.66,5.66
			c-1.31,1.31-2.03,3.03-2.03,4.88c0,1.84,0.72,3.58,2.03,4.88c1.27,1.28,3,1.99,4.83,2c1.84,0,3.58-0.71,4.87-2.01l5.68-5.69
			C227.1,19.13,227.1,14.77,224.42,12.09z"/>
	</g>
	<g>
		<path class="st0" d="M224.2,56.35c-0.02-0.02-5.71-5.7-5.71-5.7c-1.3-1.3-3.03-2.02-4.87-2.02c-1.83,0-3.56,0.72-4.86,2.04
			c-2.66,2.65-2.67,7.01,0,9.7c0.02,0.01,5.69,5.69,5.69,5.69c2.68,2.68,7.03,2.68,9.72,0.01C226.85,63.37,226.85,59.02,224.2,56.35
			z"/>
	</g>
	<g>
		<path class="st2" d="M185.71,17.76c0,0-5.68-5.68-5.69-5.69c-2.69-2.66-7.03-2.66-9.71,0.01c-2.68,2.68-2.68,7.04-0.01,9.72
			c0.01,0.01,5.7,5.69,5.7,5.69c1.28,1.29,3.02,2.01,4.86,2.01c1.84,0,3.57-0.72,4.87-2.02c1.29-1.28,2-3.01,2-4.85
			C187.72,20.79,187,19.06,185.71,17.76z"/>
	</g>
	<g>
		<g>
			<path class="st0" d="M180.54,38.15c-0.11-0.75-0.34-1.46-0.68-2.12H159.6c-0.34,0.65-0.57,1.37-0.68,2.12H180.54z"/>
		</g>
		<g>
			<path class="st0" d="M158.95,40.38c0.12,0.68,0.34,1.32,0.65,1.92h20.26c0.31-0.59,0.53-1.24,0.65-1.92H158.95z"/>
		</g>
		<g>
			<path class="st0" d="M178.03,33.79c-1.18-0.94-2.66-1.51-4.28-1.51h-8.03c-1.62,0-3.11,0.56-4.29,1.51H178.03z"/>
		</g>
		<g>
			<path class="st0" d="M161.43,44.53c1.18,0.94,2.67,1.5,4.29,1.5h8.03c1.62,0,3.11-0.56,4.28-1.5H161.43z"/>
		</g>
	</g>
	<g>
		<g>
			<path class="st0" d="M214.26,40.37c0.12,0.68,0.34,1.32,0.65,1.92h20.26c0.31-0.59,0.53-1.24,0.65-1.92H214.26z"/>
		</g>
		<g>
			<path class="st0" d="M235.85,38.13c-0.11-0.75-0.34-1.46-0.68-2.12h-20.26c-0.34,0.65-0.57,1.37-0.68,2.12H235.85z"/>
		</g>
		<g>
			<path class="st0" d="M216.74,44.52c1.18,0.94,2.67,1.5,4.28,1.5h8.03c1.62,0,3.11-0.56,4.29-1.5H216.74z"/>
		</g>
		<g>
			<path class="st0" d="M233.34,33.78c-1.18-0.94-2.67-1.51-4.29-1.51h-8.03c-1.62,0-3.11,0.56-4.28,1.51H233.34z"/>
		</g>
	</g>
	<g>
		<g>
			<g>
				<path class="st3" d="M196.15,1.56c-0.68,0.12-1.32,0.34-1.92,0.64v20.29c0.6,0.3,1.24,0.52,1.92,0.64V1.56z"/>
			</g>
			<g>
				<path class="st3" d="M192,3.99c-0.97,1.18-1.56,2.69-1.56,4.34v8.04c0,1.65,0.59,3.16,1.56,4.34V3.99z"/>
			</g>
		</g>
		<g>
			<g>
				<path class="st3" d="M200.5,2.25c-0.64-0.33-1.33-0.58-2.07-0.7v21.59c0.73-0.12,1.43-0.36,2.07-0.7V2.25z"/>
			</g>
			<g>
				<path class="st3" d="M202.74,4.11v16.46c0.91-1.17,1.46-2.62,1.46-4.21V8.32C204.19,6.74,203.65,5.28,202.74,4.11z"/>
			</g>
		</g>
	</g>
	<g>
		<g>
			<g>
				<path class="st0" d="M196.14,54.81c-0.68,0.11-1.32,0.34-1.91,0.64v20.29c0.6,0.3,1.24,0.52,1.91,0.63V54.81z"/>
			</g>
			<g>
				<path class="st0" d="M191.99,57.23c-0.97,1.18-1.56,2.69-1.56,4.34v8.03c0,1.65,0.59,3.16,1.56,4.34V57.23z"/>
			</g>
		</g>
		<g>
			<g>
				<path class="st0" d="M200.62,55.49c-0.64-0.33-1.33-0.58-2.07-0.7v21.58c0.74-0.12,1.43-0.36,2.07-0.69V55.49z"/>
			</g>
			<g>
				<path class="st0" d="M202.85,57.36v16.46c0.91-1.17,1.46-2.62,1.46-4.21v-8.03C204.31,59.98,203.76,58.52,202.85,57.36z"/>
			</g>
		</g>
	</g>
	<g>
		<path class="st0" d="M175.3,56.16h-11.86c-1.68,0-3.26-0.38-4.66-1.05v46.85h21.75V54.81C179,55.65,177.22,56.16,175.3,56.16z"/>
	</g>
</g>
</svg>
